# xmcd
#
# Track frame offsets:
#	183
#	10015
#	19273
#	32320
#	45000
#	58420
#	69930
#	90445
#	107543
#	120853
#	134668
#	147418
#	157230
#	169613
#	183638
#	201725
#
# Disc length: 2824 seconds
#
# Revision: 1
# Processed by: cddbd v1.5.2PL0 Copyright (c) Steve Scherf et al.
# Submitted via: audiograbber 1.83.01
#
DISCID=d50b0610
DTITLE=MusikMixvon AbisZ - Dancing Time
DYEAR=1900
DGENRE=
TTITLE0=Herp Alpert - A Banda
TTITLE1=Billy Vaughn - Blue Hawaii
TTITLE2=Duke Ellington - Take The A Train
TTITLE3=Django Reinhardt - Limehouse Blues
TTITLE4=Lionel Hampton - Flying Home
TTITLE5=Ray Connif - Never On Sunday
TTITLE6=Chris Barber - Ice Cream
TTITLE7=Glenn Miller - Georgia On My Mind
TTITLE8=Louis Armstrong - Tiger Rag
TTITLE9=Fats Waller - Ain't Misbehavin'
TTITLE10=Harry James - Hot Pink
TTITLE11=Mantovani - Wunderbar
TTITLE12=Mr. Acker Bilk - Creole Jazz
TTITLE13=Count Basie - Jumpin' At The Woodside
TTITLE14=Gene Krupa - Mulligan Star
TTITLE15=Billy Vaughn - A Swingin' Safari
EXTD=
EXTT0=
EXTT1=
EXTT2=
EXTT3=
EXTT4=
EXTT5=
EXTT6=
EXTT7=
EXTT8=
EXTT9=
EXTT10=
EXTT11=
EXTT12=
EXTT13=
EXTT14=
EXTT15=
PLAYORDER=
